<svg xmlns="http://www.w3.org/2000/svg" style="display:none">
    <symbol id="fez-fezui" viewBox="0 0 109 32">
       <title>fezui</title> <path fill="#79baff" d="M0 6.4h6.4v19.2h-6.4v-19.2zM6.4 12.8h6.4v6.4h-6.4v-6.4zM6.4 0h6.4v6.4h-6.4v-6.4z"/> <path fill="#3798ff" d="M0 25.6h6.4v6.4c-3.535 0-6.4-2.865-6.4-6.4zM12.8 12.8h6.4c0 3.535-2.865 6.4-6.4 6.4v-6.4zM6.4 0v6.4h-6.4c0-3.535 2.865-6.4 6.4-6.4v0zM12.8 0h6.4c0 3.535-2.865 6.4-6.4 6.4v-6.4z"/> <path fill="#79baff" d="M25.6 6.4h6.4v19.2h-6.4v-19.2zM32 12.8h6.4v6.4h-6.4v-6.4zM32 0h6.4v6.4h-6.4v-6.4zM32 25.6h6.4v6.4h-6.4v-6.4z"/> <path fill="#3798ff" d="M25.6 25.6h6.4v6.4c-3.535 0-6.4-2.865-6.4-6.4zM38.4 12.8h6.4c0 3.535-2.865 6.4-6.4 6.4v-6.4zM32 0v6.4h-6.4c0-3.535 2.865-6.4 6.4-6.4v0zM38.4 0h6.4c0 3.535-2.865 6.4-6.4 6.4v-6.4zM38.4 25.6h6.4c0 3.535-2.865 6.4-6.4 6.4v-6.4z"/> <path fill="#3798ff" d="M57.6 0v6.4h-6.4c0-3.535 2.865-6.4 6.4-6.4v0zM64 6.4h6.4c0 3.535-2.865 6.4-6.4 6.4v-6.4zM57.6 19.2v6.4h-6.4c0-3.535 2.865-6.4 6.4-6.4v0zM64 25.6h6.4c0 3.535-2.865 6.4-6.4 6.4v-6.4z"/> <path fill="#79baff" d="M57.6 0h12.8v6.4h-12.8v-6.4zM57.6 12.8h6.4v6.4h-6.4v-6.4zM51.2 25.6h12.8v6.4h-12.8v-6.4z"/> <path fill="#ff8629" d="M76.8 0v0c3.535 0 6.4 2.865 6.4 6.4v0h-6.4v-6.4zM96 6.4h-6.4c0-3.535 2.865-6.4 6.4-6.4v6.4zM76.8 25.6h6.4v6.4c-3.535 0-6.4-2.865-6.4-6.4v0zM89.6 25.6h6.4c0 3.535-2.865 6.4-6.4 6.4v-6.4z"/> <path fill="#ffa966" d="M76.8 6.4h6.4v19.2h-6.4v-19.2zM83.2 25.6h6.4v6.4h-6.4v-6.4zM89.6 6.4h6.4v19.2h-6.4v-19.2z"/> <path fill="#ff8629" d="M102.4 0v0c3.535 0 6.4 2.865 6.4 6.4v0h-6.4v-6.4zM102.4 25.6h6.4v6.4c-3.535 0-6.4-2.865-6.4-6.4v0z"/> <path fill="#ffa966" d="M102.4 6.4h6.4v19.2h-6.4v-19.2z"/> 
    </symbol></svg>